<?xml version="1.0" standalone="no"?>
<!DOCTYPE svg PUBLIC "-//W3C//DTD SVG 20010904//EN"
 "http://www.w3.org/TR/2001/REC-SVG-20010904/DTD/svg10.dtd">
<svg version="1.0" xmlns="http://www.w3.org/2000/svg"
 width="512.000000pt" height="512.000000pt" viewBox="0 0 512.000000 512.000000"
 preserveAspectRatio="xMidYMid meet">
<metadata>
Created by potrace 1.16, written by Peter Selinger 2001-2019
</metadata>
<g transform="translate(0.000000,512.000000) scale(0.100000,-0.100000)"
fill="#000000" stroke="none">
<path d="M203 4958 c-174 -172 -196 -198 -191 -231 3 -19 32 5 192 163 103
102 192 193 197 203 8 14 5 17 -17 17 -21 0 -60 -33 -181 -152z"/>
<path d="M303 4858 c-140 -139 -264 -265 -275 -281 -10 -15 -18 -37 -16 -50 3
-18 49 23 292 263 158 157 292 293 297 303 8 14 5 17 -17 17 -22 0 -75 -47
-281 -252z"/>
<path d="M402 4758 c-194 -194 -362 -365 -373 -381 -11 -15 -19 -37 -17 -50 4
-18 67 40 392 363 213 212 392 393 397 403 8 14 5 17 -18 17 -22 0 -89 -62
-381 -352z"/>
<path d="M502 4658 c-249 -249 -462 -465 -473 -481 -11 -15 -19 -37 -17 -50 4
-18 84 57 492 463 268 267 492 493 497 503 8 14 5 17 -18 17 -22 0 -104 -76
-481 -452z"/>
<path d="M602 4558 c-304 -304 -562 -565 -573 -581 -11 -15 -19 -37 -17 -50 4
-18 101 75 592 563 323 322 592 593 597 603 8 14 5 17 -18 17 -23 0 -118 -91
-581 -552z"/>
<path d="M702 4458 c-359 -359 -662 -665 -673 -681 -11 -15 -19 -37 -17 -50 4
-18 118 92 692 663 378 377 692 693 697 703 8 14 5 17 -18 17 -23 0 -133 -106
-681 -652z"/>
<path d="M802 4358 c-414 -414 -762 -765 -773 -781 -11 -15 -19 -37 -17 -50 4
-18 136 109 792 763 433 432 792 793 797 803 8 14 5 17 -18 17 -23 0 -148
-120 -781 -752z"/>
<path d="M902 4258 c-469 -469 -862 -865 -873 -881 -11 -15 -19 -37 -17 -50 4
-18 153 126 892 863 488 487 892 893 897 903 8 14 5 17 -18 17 -23 0 -162
-135 -881 -852z"/>
<path d="M1726 4882 c-218 -215 -236 -231 -317 -270 -67 -32 -100 -56 -143
-103 -54 -58 -95 -124 -111 -179 -4 -14 -259 -278 -576 -595 -472 -474 -569
-575 -569 -598 0 -15 3 -27 7 -27 4 0 256 249 560 552 l553 553 0 -65 0 -65
-560 -560 c-465 -465 -560 -565 -560 -588 0 -15 3 -27 7 -27 4 0 256 249 560
552 l553 553 0 -65 0 -65 -560 -560 c-465 -465 -560 -565 -560 -588 0 -15 3
-27 7 -27 4 0 256 249 560 552 l553 553 0 -65 0 -65 -560 -560 c-465 -465
-560 -565 -560 -588 0 -15 3 -27 7 -27 4 0 256 249 560 552 l553 553 0 -65 0
-65 -560 -560 c-465 -465 -560 -565 -560 -588 0 -15 3 -27 7 -27 4 0 256 249
560 552 l553 553 0 -65 0 -65 -560 -560 c-465 -465 -560 -565 -560 -588 0 -15
3 -27 7 -27 4 0 256 249 560 552 l553 553 0 -65 0 -65 -560 -560 c-465 -465
-560 -565 -560 -588 0 -15 3 -27 7 -27 4 0 256 249 560 552 l553 553 0 -65 0
-65 -560 -560 c-465 -465 -560 -565 -560 -588 0 -15 3 -27 7 -27 4 0 256 249
560 552 304 304 553 547 553 540 0 -8 17 -12 52 -12 l53 0 -115 -116 c-72 -73
-131 -123 -157 -134 -59 -26 -130 -95 -160 -155 -19 -37 -120 -146 -409 -436
-315 -316 -384 -390 -384 -412 0 -15 3 -27 7 -27 4 0 173 165 375 367 l368
368 0 -65 0 -64 -375 -376 c-308 -309 -375 -381 -375 -403 0 -15 3 -27 7 -27
4 0 173 165 375 367 l368 368 0 -65 0 -64 -375 -376 c-308 -309 -375 -381
-375 -403 0 -15 3 -27 7 -27 4 0 173 165 375 367 l368 368 0 -65 0 -64 -375
-376 c-308 -309 -375 -381 -375 -403 0 -15 3 -27 7 -27 4 0 172 165 374 366
l366 366 6 -59 5 -58 -379 -381 c-311 -312 -379 -385 -379 -407 0 -15 3 -27 7
-27 4 0 178 170 386 377 209 208 381 374 383 368 2 -5 13 -23 23 -40 l19 -30
-409 -411 c-336 -337 -409 -415 -409 -437 0 -15 3 -27 7 -27 4 0 195 187 424
416 l417 417 37 -28 36 -28 -460 -462 c-381 -380 -461 -466 -461 -488 0 -15 3
-27 7 -27 4 0 222 214 484 476 474 474 477 476 510 469 19 -3 42 -9 53 -12 14
-4 -96 -120 -518 -542 -448 -448 -536 -541 -536 -564 0 -23 3 -26 18 -18 9 5
267 260 572 565 l555 556 65 0 65 0 -613 -613 c-336 -337 -612 -616 -612 -620
0 -4 12 -7 27 -7 22 0 115 87 535 507 l508 508 0 -65 0 -65 -426 -425 c-234
-234 -430 -433 -435 -443 -8 -14 -5 -17 18 -17 22 0 98 70 440 412 227 227
414 410 416 407 2 -2 10 -23 19 -45 l15 -42 -349 -348 c-192 -192 -354 -357
-359 -367 -8 -14 -5 -17 18 -17 22 0 87 60 370 342 l343 342 29 -34 30 -35
-300 -300 c-164 -166 -299 -304 -299 -308 0 -4 12 -7 27 -7 22 0 82 55 317
289 l291 289 37 -27 36 -28 -244 -244 c-135 -134 -250 -252 -255 -261 -8 -15
-5 -18 17 -18 22 0 75 47 278 250 l252 250 46 -18 47 -18 -215 -214 c-118
-118 -220 -223 -225 -232 -8 -15 -5 -18 17 -18 22 0 72 44 259 230 l231 230
64 0 64 0 -222 -223 c-122 -123 -222 -226 -222 -230 0 -4 12 -7 27 -7 21 0 72
46 258 230 l231 230 64 0 64 0 -222 -223 c-122 -123 -222 -226 -222 -230 0 -4
12 -7 27 -7 21 0 72 46 258 230 l231 230 64 0 64 0 -222 -223 c-122 -123 -222
-226 -222 -230 0 -4 12 -7 27 -7 21 0 72 46 258 230 l231 230 64 0 64 0 -222
-223 c-122 -123 -222 -226 -222 -230 0 -4 12 -7 27 -7 21 0 72 46 258 230
l231 230 64 0 64 0 -222 -223 c-122 -123 -222 -226 -222 -230 0 -4 12 -7 27
-7 21 0 72 46 258 230 l231 230 64 0 64 0 -222 -223 c-122 -123 -222 -226
-222 -230 0 -4 12 -7 27 -7 21 0 72 46 258 230 l231 230 64 0 64 0 -222 -223
c-122 -123 -222 -226 -222 -230 0 -4 12 -7 27 -7 21 0 72 46 258 230 l231 230
64 0 64 0 -222 -223 c-122 -123 -222 -226 -222 -230 0 -4 12 -7 27 -7 21 0 72
46 258 230 l231 230 64 0 64 0 -222 -223 c-122 -123 -222 -226 -222 -230 0 -4
12 -7 27 -7 21 0 72 46 258 230 l231 230 64 0 64 0 -222 -223 c-122 -123 -222
-226 -222 -230 0 -4 12 -7 27 -7 21 0 72 46 258 230 l231 230 64 0 64 0 -222
-223 c-122 -123 -222 -226 -222 -230 0 -4 12 -7 27 -7 21 0 72 46 258 230
l231 230 64 0 64 0 -222 -223 c-122 -123 -222 -226 -222 -230 0 -4 12 -7 27
-7 21 0 73 46 262 234 210 209 242 237 292 256 122 45 230 152 279 276 21 54
56 92 411 450 319 320 389 395 389 417 0 15 -3 27 -7 27 -4 0 -175 -168 -380
-372 l-373 -373 0 65 0 64 380 381 c312 313 380 386 380 408 0 15 -3 27 -7 27
-4 0 -175 -168 -380 -372 l-373 -373 0 65 0 64 380 381 c312 313 380 386 380
408 0 15 -3 27 -7 27 -4 0 -175 -168 -380 -372 l-373 -373 0 65 0 64 380 381
c312 313 380 386 380 408 0 15 -3 27 -7 27 -4 0 -175 -168 -380 -372 l-373
-373 0 65 0 64 380 381 c312 313 380 386 380 408 0 15 -3 27 -7 27 -4 0 -175
-168 -380 -372 l-373 -373 0 65 0 64 380 381 c312 313 380 386 380 408 0 15
-3 27 -7 27 -4 0 -175 -168 -380 -372 l-373 -373 0 65 0 64 380 381 c312 313
380 386 380 408 0 15 -3 27 -7 27 -4 0 -175 -168 -380 -372 l-373 -373 0 65 0
64 380 381 c312 313 380 386 380 408 0 15 -3 27 -7 27 -4 0 -175 -168 -380
-372 l-373 -373 0 65 0 64 380 381 c312 313 380 386 380 408 0 15 -3 27 -7 27
-4 0 -175 -168 -380 -372 l-373 -373 0 65 0 64 380 381 c312 313 380 386 380
408 0 15 -3 27 -7 27 -4 0 -175 -168 -380 -372 l-373 -373 0 65 0 64 380 381
c312 313 380 386 380 408 0 15 -3 27 -7 27 -4 0 -175 -168 -380 -372 l-373
-373 0 65 0 64 380 381 c312 313 380 386 380 408 0 15 -3 27 -7 27 -4 0 -175
-168 -380 -372 l-373 -373 0 65 0 64 380 381 c312 313 380 386 380 408 0 15
-3 27 -7 27 -4 0 -175 -168 -380 -372 l-373 -373 0 65 0 64 380 381 c312 313
380 386 380 408 0 15 -3 27 -7 27 -4 0 -182 -174 -395 -387 l-388 -388 -32 33
-33 32 428 428 c352 352 427 433 427 455 0 15 -3 27 -7 27 -4 0 -204 -197
-445 -437 l-438 -438 -32 33 -33 32 478 478 c394 395 477 483 477 505 0 15 -3
27 -7 27 -4 0 -227 -219 -495 -487 l-488 -488 -32 33 -33 32 528 528 c436 437
527 532 527 555 0 15 -3 27 -7 27 -4 0 -250 -242 -545 -537 l-538 -538 -32 33
-33 32 578 578 c479 480 577 582 577 605 0 15 -3 27 -7 27 -4 0 -272 -264
-595 -587 l-588 -588 -32 33 -33 32 573 573 c314 315 572 576 572 580 0 4 -12
7 -27 7 -23 0 -123 -96 -590 -562 l-563 -563 -32 33 -33 32 523 523 c287 287
522 526 522 530 0 4 -12 7 -27 7 -23 0 -116 -88 -540 -512 l-513 -513 -32 33
-33 32 473 473 c259 260 472 476 472 480 0 4 -12 7 -27 7 -22 0 -108 -81 -490
-462 l-463 -463 -32 33 -33 32 423 423 c232 232 422 426 422 430 0 4 -12 7
-27 7 -22 0 -100 -73 -440 -412 l-413 -413 -32 33 -33 32 373 373 c204 205
372 376 372 380 0 4 -12 7 -27 7 -22 0 -93 -66 -390 -362 l-363 -362 -32 32
-33 32 323 323 c177 177 322 326 322 330 0 4 -12 7 -27 7 -22 0 -85 -58 -340
-312 l-313 -312 -32 32 -33 32 273 273 c149 150 272 276 272 280 0 4 -12 7
-27 7 -21 0 -77 -50 -290 -262 l-263 -262 -32 32 -33 32 223 223 c122 123 222
226 222 230 0 4 -12 7 -27 7 -21 0 -71 -45 -253 -225 l-226 -225 -64 0 -64 0
217 218 c119 120 217 221 217 225 0 4 -12 7 -27 7 -21 0 -71 -45 -253 -225
l-226 -225 -64 0 -64 0 217 218 c119 120 217 221 217 225 0 4 -12 7 -27 7 -21
0 -71 -45 -253 -225 l-226 -225 -64 0 -64 0 217 218 c119 120 217 221 217 225
0 4 -12 7 -27 7 -21 0 -71 -45 -253 -225 l-226 -225 -64 0 -64 0 217 218 c119
120 217 221 217 225 0 4 -12 7 -27 7 -21 0 -71 -45 -253 -225 l-226 -225 -64
0 -64 0 217 218 c119 120 217 221 217 225 0 4 -12 7 -27 7 -21 0 -71 -45 -253
-225 l-226 -225 -64 0 -64 0 217 218 c119 120 217 221 217 225 0 4 -12 7 -27
7 -21 0 -71 -45 -253 -225 l-226 -225 -64 0 -64 0 217 218 c119 120 217 221
217 225 0 4 -12 7 -27 7 -21 0 -71 -45 -253 -225 l-226 -225 -64 0 -64 0 217
218 c119 120 217 221 217 225 0 4 -12 7 -27 7 -21 0 -72 -46 -257 -228z m-16
-615 c0 -1 -43 -45 -95 -97 l-95 -95 0 64 c0 58 2 65 34 97 31 31 39 34 95 34
34 0 61 -1 61 -3z m10 -192 l-195 -195 -3 62 -3 62 133 133 133 133 65 0 65 0
-195 -195z m100 -100 l-295 -295 -3 62 -3 62 233 233 233 233 65 0 65 0 -295
-295z m100 -100 l-395 -395 -3 62 -3 62 333 333 333 333 65 0 65 0 -395 -395z
m100 -100 l-495 -495 -3 62 -3 62 433 433 433 433 65 0 65 0 -495 -495z m580
437 l0 -57 -540 -540 -540 -540 0 65 0 65 532 532 c293 293 536 533 540 533 5
0 8 -26 8 -58z m473 -184 l-78 -79 -3 62 c-3 62 -3 62 45 111 l47 48 33 -32
33 -32 -77 -78z m-1010 -610 l-538 -538 -3 62 -3 62 538 538 538 538 3 -62 3
-62 -538 -538z m1060 460 l-128 -128 -3 62 -3 62 98 98 97 98 33 -32 33 -32
-127 -128z m50 -150 l-178 -178 -3 62 -3 62 148 148 147 148 33 -32 33 -32
-177 -178z m-1165 -565 l-593 -593 -65 0 -65 0 655 655 655 655 3 -62 3 -62
-593 -593z m1220 420 c-238 -238 -236 -237 -237 -148 -1 39 4 45 196 237 l197
198 33 -32 33 -32 -222 -223z m120 -80 c-182 -183 -206 -203 -236 -203 -18 0
-43 5 -54 11 -19 10 -3 28 203 235 l223 224 33 -32 33 -32 -202 -203z m-1240
-440 l-493 -493 -65 0 -65 0 555 555 555 555 3 -62 3 -62 -493 -493z m1390
390 l-153 -153 -65 0 -65 0 185 185 184 185 33 -32 33 -32 -152 -153z m150
-50 l-103 -103 -65 0 -65 0 135 135 134 135 33 -32 33 -32 -102 -103z m-1440
-440 l-393 -393 -65 0 -65 0 455 455 455 455 3 -62 3 -62 -393 -393z m1590
390 l-52 -53 -65 0 -66 0 85 85 84 85 33 -32 33 -32 -52 -53z m-1170 -110 l13
-47 -313 -313 -313 -313 -65 0 -65 0 360 360 c198 198 362 360 365 360 3 0 12
-21 18 -47z m67 -129 l28 -36 -254 -254 -254 -254 -65 0 -65 0 290 290 c159
160 290 290 291 290 1 0 14 -16 29 -36z m100 -101 l35 -28 -207 -207 -208
-208 -65 0 -65 0 235 235 c129 129 236 235 238 235 2 0 19 -12 37 -27z m138
-74 l38 -13 -178 -178 -178 -178 -65 0 -65 0 195 195 c107 107 199 193 205
191 5 -3 27 -10 48 -17z m52 -199 l-170 -170 -65 0 -65 0 170 170 170 170 65
0 65 0 -170 -170z m200 0 l-170 -170 -65 0 -65 0 170 170 170 170 65 0 65 0
-170 -170z m200 0 l-170 -170 -65 0 -65 0 170 170 170 170 65 0 65 0 -170
-170z m180 -20 l-190 -190 -49 16 -48 17 173 173 174 174 65 0 65 0 -190 -190z
m153 -47 l-238 -238 -32 33 -33 32 205 205 205 205 65 0 65 0 -237 -237z m34
-166 l-209 -209 -18 47 -18 47 224 224 224 224 3 -62 3 -62 -209 -209z m-2427
173 l-110 -110 -65 0 -65 0 110 110 110 110 65 0 65 0 -110 -110z m2431 -369
l-206 -206 0 65 0 65 203 203 202 202 3 -62 3 -62 -205 -205z m0 -200 l-206
-206 0 65 0 65 203 203 202 202 3 -62 3 -62 -205 -205z m0 -200 l-206 -206 0
65 0 65 203 203 202 202 3 -62 3 -62 -205 -205z m-2056 144 l-95 -96 -3 51
c-2 29 -8 50 -15 50 -6 0 9 20 33 45 43 44 45 45 109 45 l66 0 -95 -95z m671
78 c-5 -10 -80 -88 -166 -173 -107 -106 -149 -143 -134 -117 22 38 22 40 4 69
l-17 30 33 34 33 35 17 -22 c16 -22 17 -21 56 47 22 38 46 79 52 92 10 19 20
22 72 22 54 0 59 -2 50 -17z m329 -78 l-95 -96 -3 51 c-2 29 -8 50 -15 50 -6
0 9 20 33 45 43 44 45 45 109 45 l66 0 -95 -95z m1050 -349 l-211 -211 6 70 7
70 201 203 202 202 3 -62 3 -62 -211 -210z m-1526 190 c-3 -7 4 -29 15 -48
l21 -34 -35 -34 -34 -33 -19 23 -19 23 -57 -96 -57 -97 -62 0 -62 0 155 155
c85 85 156 155 157 155 1 0 0 -6 -3 -14z m1304 -613 l-433 -433 -65 0 -65 0
495 495 495 495 3 -62 3 -62 -433 -433z m100 -100 l-333 -333 -65 0 -65 0 395
395 395 395 3 -62 3 -62 -333 -333z m100 -100 l-233 -233 -65 0 -65 0 295 295
295 295 3 -62 3 -62 -233 -233z m-633 -33 l-200 -200 -65 0 -65 0 195 195 194
194 50 4 c28 2 60 4 71 5 13 1 -53 -71 -180 -198z m-1720 80 l-110 -110 -65 0
-65 0 110 110 110 110 65 0 65 0 -110 -110z m200 0 l-110 -110 -65 0 -65 0
110 110 110 110 65 0 65 0 -110 -110z m137 -62 c-185 -185 -192 -189 -192
-103 0 37 7 46 117 157 l118 118 65 0 65 0 -173 -172z m178 -23 l-195 -195
-51 0 c-28 0 -54 3 -58 7 -4 4 78 92 181 195 l188 188 65 0 65 0 -195 -195z
m200 0 l-195 -195 -65 0 -65 0 195 195 195 195 65 0 65 0 -195 -195z m200 0
l-195 -195 -65 0 -65 0 195 195 195 195 65 0 65 0 -195 -195z m200 0 l-195
-195 -65 0 -65 0 195 195 195 195 65 0 65 0 -195 -195z m200 0 l-195 -195 -65
0 -65 0 195 195 195 195 65 0 65 0 -195 -195z m200 0 l-195 -195 -65 0 -65 0
195 195 195 195 65 0 65 0 -195 -195z m938 -62 l-133 -133 -65 0 -65 0 195
195 195 195 3 -62 3 -62 -133 -133z m101 -99 c-31 -32 -37 -34 -98 -34 l-66 0
95 95 95 96 3 -62 c3 -58 1 -64 -29 -95z"/>
<path d="M4396 750 c-394 -393 -722 -723 -727 -732 -8 -15 -5 -18 18 -18 23 0
137 110 711 683 376 375 692 694 703 710 11 15 19 37 17 50 -4 18 -124 -97
-722 -693z"/>
<path d="M4496 650 c-339 -338 -622 -623 -627 -632 -8 -15 -5 -18 18 -18 23 0
123 95 611 583 321 320 592 594 603 610 11 15 19 37 17 50 -4 18 -106 -80
-622 -593z"/>
<path d="M4596 550 c-284 -283 -522 -523 -527 -533 -8 -14 -5 -17 18 -17 23 0
108 81 511 483 266 265 492 494 503 510 11 15 19 37 17 50 -4 18 -89 -62 -522
-493z"/>
<path d="M4696 450 c-229 -228 -422 -423 -427 -432 -8 -15 -5 -18 18 -18 22 0
93 66 411 383 211 210 392 394 403 410 11 15 19 37 17 50 -4 18 -72 -45 -422
-393z"/>
<path d="M4796 350 c-174 -173 -322 -323 -327 -332 -8 -15 -5 -18 17 -18 23 0
80 52 312 282 156 156 293 295 303 311 11 15 19 37 17 50 -4 18 -54 -28 -322
-293z"/>
<path d="M4896 250 c-119 -118 -222 -223 -227 -232 -8 -15 -5 -18 17 -18 21 0
65 37 211 183 205 202 226 227 221 260 -3 19 -37 -11 -222 -193z"/>
<path d="M4996 150 c-136 -133 -149 -150 -111 -150 18 0 49 23 111 82 102 98
127 130 122 161 -3 19 -19 7 -122 -93z"/>
</g>
</svg>
