<?xml version="1.0" standalone="no"?>
<!DOCTYPE svg PUBLIC "-//W3C//DTD SVG 20010904//EN"
 "http://www.w3.org/TR/2001/REC-SVG-20010904/DTD/svg10.dtd">
<svg version="1.0" xmlns="http://www.w3.org/2000/svg"
 width="512.000000pt" height="381.000000pt" viewBox="0 0 512.000000 381.000000"
 preserveAspectRatio="xMidYMid meet">
<metadata>
Created by potrace 1.16, written by Peter Selinger 2001-2019
</metadata>
<g transform="translate(0.000000,381.000000) scale(0.100000,-0.100000)"
fill="#000000" stroke="none">
<path d="M918 3128 l-3 -683 -177 -134 -178 -134 0 -733 0 -734 180 0 180 0 0
-355 0 -355 80 0 80 0 0 355 0 355 1480 0 1480 0 0 -355 0 -355 80 0 80 0 0
355 0 355 180 0 180 0 0 738 0 738 -180 133 -180 132 0 324 0 323 -362 356
-363 356 -282 0 -283 0 0 -435 0 -435 565 0 565 0 0 -375 0 -375 -1480 0
-1480 0 0 810 0 810 -80 0 -80 0 -2 -682z m1312 -1453 l0 -55 -95 0 -95 0 0
-270 0 -270 -65 0 -65 0 0 270 0 270 -95 0 -95 0 0 55 0 55 255 0 255 0 0 -55z
m280 -66 c64 -108 73 -119 84 -102 7 10 41 64 75 121 l63 102 69 0 c38 0 69
-2 69 -5 0 -3 -45 -73 -100 -155 l-99 -149 104 -168 105 -168 -72 -3 c-39 -2
-75 1 -81 7 -5 5 -42 64 -82 130 l-72 122 -58 -98 c-97 -165 -95 -163 -171
-163 -35 0 -64 3 -64 7 0 3 45 78 101 165 55 87 99 164 96 171 -2 7 -48 79
-101 160 l-96 147 79 0 78 0 73 -121z m930 66 l0 -55 -95 0 -95 0 0 -270 0
-270 -70 0 -70 0 0 270 0 269 -92 3 -93 3 -3 53 -3 52 260 0 261 0 0 -55z"/>
</g>
</svg>
